ply
format ascii 1.0
element vertex 78
property float x
property float y
property float z
property float nx
property float ny
property float nz
property uchar red
property uchar green
property uchar blue
element face 62
property list uchar int32 vertex_indices
end_header
-1 -1 -1 -1 0 0 255 255 255 
-1 -1 1 -1 0 0 255 255 255 
-1 1 1 -1 0 0 255 255 255 
-1 1 -1 -1 0 0 255 255 255 
1 -0.8 -0.8 1 -0 -0 255 255 255 
1 -1 -1 1 0 0 255 255 255 
1 -0.8 -1 1 -0 -0 255 255 255 
1 -0.8 1 1 -0 -0 255 255 255 
1 -1 1 1 0 0 255 255 255 
1 0.8 0.8 1 -0 -0 255 255 255 
1 0.8 -1 1 -0 -0 255 255 255 
1 1 -1 1 0 0 255 255 255 
1 1 1 1 0 0 255 255 255 
1 0.8 1 1 -0 -0 255 255 255 
1 0.8 -0.8 1 -0 -0 255 255 255 
1 -0.8 0.8 1 -0 -0 255 255 255 
0.2 -1 0.2 -0 -1 -0 255 255 255 
-1 -1 -1 0 -1 0 255 255 255 
0.2 -1 -1 -0 -1 -0 255 255 255 
0.2 -1 1 -0 -1 -0 255 255 255 
-1 -1 1 0 -1 0 255 255 255 
1 -1 -1 0 -1 0 255 255 255 
1 -1 1 0 -1 0 255 255 255 
0.2 1 0.2 -0 1 -0 255 255 255 
-1 1 -1 0 1 0 255 255 255 
-1 1 1 0 1 0 255 255 255 
0.2 1 1 -0 1 -0 255 255 255 
0.2 1 -1 -0 1 -0 255 255 255 
1 1 1 0 1 0 255 255 255 
1 1 -1 0 1 0 255 255 255 
0.2 0.2 -1 -0 -0 -1 255 255 255 
-1 -1 -1 0 0 -1 255 255 255 
-1 1 -1 0 0 -1 255 255 255 
0.2 1 -1 -0 -0 -1 255 255 255 
0.2 -1 -1 -0 -0 -1 255 255 255 
0.2 -0.8 -1 -0 -0 -1 255 255 255 
1 -0.8 -1 -0 -0 -1 255 255 255 
1 -1 -1 0 0 -1 255 255 255 
0.8 0.8 -1 -0 -0 -1 255 255 255 
0.2 0.8 -1 -0 -0 -1 255 255 255 
1 1 -1 0 0 -1 255 255 255 
1 0.8 -1 -0 -0 -1 255 255 255 
0.2 0.2 1 -0 -0 1 255 255 255 
-1 -1 1 0 0 1 255 255 255 
0.2 -1 1 -0 -0 1 255 255 255 
0.2 1 1 -0 -0 1 255 255 255 
-1 1 1 0 0 1 255 255 255 
0.2 -0.8 1 -0 -0 1 255 255 255 
1 -1 1 0 0 1 255 255 255 
1 -0.8 1 -0 -0 1 255 255 255 
0.8 0.8 1 -0 -0 1 255 255 255 
1 0.8 1 -0 -0 1 255 255 255 
1 1 1 0 0 1 255 255 255 
0.2 0.8 1 -0 -0 1 255 255 255 
0.2 0.8 0.8 1 -0 -0 255 255 255 
0.2 -0.8 0.8 1 -0 -0 255 255 255 
0.2 -0.8 -0.8 1 -0 -0 255 255 255 
0.2 0.8 -0.8 1 -0 -0 255 255 255 
1 -0.8 0 -0 1 -0 255 255 255 
1 -0.8 -0.8 -0 1 -0 255 255 255 
0.2 -0.8 -0.8 -0 1 -0 255 255 255 
0.2 -0.8 0.8 -0 1 -0 255 255 255 
1 -0.8 0.8 -0 1 -0 255 255 255 
1 0.8 0 -0 -1 -0 255 255 255 
1 0.8 0.8 -0 -1 -0 255 255 255 
0.2 0.8 0.8 -0 -1 -0 255 255 255 
0.2 0.8 -0.8 -0 -1 -0 255 255 255 
1 0.8 -0.8 -0 -1 -0 255 255 255 
1 0 -0.8 -0 -0 1 255 255 255 
1 0.8 -0.8 -0 -0 1 255 255 255 
0.2 0.8 -0.8 -0 -0 1 255 255 255 
0.2 -0.8 -0.8 -0 -0 1 255 255 255 
1 -0.8 -0.8 -0 -0 1 255 255 255 
1 0 0.8 -0 -0 -1 255 255 255 
1 -0.8 0.8 -0 -0 -1 255 255 255 
0.2 -0.8 0.8 -0 -0 -1 255 255 255 
0.2 0.8 0.8 -0 -0 -1 255 255 255 
1 0.8 0.8 -0 -0 -1 255 255 255 
3 0 1 2
3 0 2 3
3 4 5 6
3 5 4 7
3 5 7 8
3 9 10 11
3 9 11 12
3 9 12 13
3 14 4 6
3 14 6 10
3 15 9 13
3 15 13 7
3 16 17 18
3 17 16 19
3 17 19 20
3 16 18 21
3 16 21 22
3 16 22 19
3 23 24 25
3 23 25 26
3 27 24 23
3 23 26 28
3 27 23 28
3 27 28 29
3 30 31 32
3 30 32 33
3 34 31 30
3 34 35 36
3 34 36 37
3 38 39 33
3 38 33 40
3 38 40 41
3 38 30 39
3 35 30 38
3 35 38 41
3 35 41 36
3 42 43 44
3 43 42 45
3 43 45 46
3 47 44 48
3 47 48 49
3 50 51 52
3 53 50 52
3 53 52 45
3 50 42 47
3 50 47 49
3 50 49 51
3 53 42 50
3 54 55 56
3 57 54 56
3 58 59 60
3 61 62 58
3 61 58 60
3 63 64 65
3 63 65 66
3 67 63 66
3 68 69 70
3 68 70 71
3 72 68 71
3 73 74 75
3 76 77 73
3 76 73 75
