ply
format ascii 1.0
element vertex 162
property float x
property float y
property float z
property float nx
property float ny
property float nz
property uchar red
property uchar green
property uchar blue
element face 146
property list uchar int32 vertex_indices
end_header
-1 0.601087 0.601087 -1 -0 -0 255 255 255 
-1 -1 0.601088 -1 -0 -0 255 255 255 
-1 -1 1 -1 0 0 255 255 255 
-1 1 1 -1 0 0 255 255 255 
-1 1 0.601087 -1 -0 -0 255 255 255 
-1 0.275486 0.275486 -1 -0 -0 255 255 255 
-1 -1 0.275486 -1 -0 -0 255 255 255 
-1 1 0.275486 -1 -0 -0 255 255 255 
-1 -0.0843126 -0.0843126 -1 -0 -0 255 255 255 
-1 -1 -0.0843125 -1 -0 -0 255 255 255 
-1 1 -0.0843126 -1 -0 -0 255 255 255 
-1 -1 -1 -1 0 0 255 255 255 
-1 1 -1 -1 0 0 255 255 255 
1 0.998912 0.998912 1 -0 -0 255 255 255 
1 1 0.998912 1 -0 -0 255 255 255 
1 1 1 1 0 0 255 255 255 
1 -1 0.998912 1 -0 -0 255 255 255 
1 -1 1 1 0 0 255 255 255 
1 -0.998912 -0.998912 1 -0 -0 255 255 255 
1 -1 -1 1 0 0 255 255 255 
1 1 -1 1 0 0 255 255 255 
1 1 -0.998912 1 -0 -0 255 255 255 
1 -1 -0.998912 1 -0 -0 255 255 255 
1 -0.601088 -0.601088 1 -0 -0 255 255 255 
1 1 -0.601088 1 -0 -0 255 255 255 
1 -1 -0.601088 1 -0 -0 255 255 255 
1 -0.275486 -0.275486 1 -0 -0 255 255 255 
1 1 -0.275486 1 -0 -0 255 255 255 
1 -1 -0.275486 1 -0 -0 255 255 255 
1 0.0843125 0.0843125 1 -0 -0 255 255 255 
1 1 0.0843125 1 -0 -0 255 255 255 
1 -1 0.0843125 1 -0 -0 255 255 255 
0.998642 -1 0.998642 -0 -1 -0 255 255 255 
1 -1 0.998912 -0 -1 -0 255 255 255 
1 -1 1 0 -1 0 255 255 255 
-1 -1 0.601087 -0 -1 -0 255 255 255 
-1 -1 1 0 -1 0 255 255 255 
-0.306147 -1 0.739103 -0 -1 -0 255 255 255 
-1 -1 0.275486 -0 -1 -0 255 255 255 
-0.565685 -1 0.565686 -0 -1 -0 255 255 255 
-1 -1 -0.0843126 -0 -1 -0 255 255 255 
-0.998642 -1 -0.998642 -0 -1 -0 255 255 255 
-1 -1 -1 0 -1 0 255 255 255 
-0.998912 -1 -1 -0 -1 -0 255 255 255 
-0.739104 -1 0.306147 -0 -1 -0 255 255 255 
-0.667271 -1 -0.667271 -0 -1 -0 255 255 255 
-0.601088 -1 -1 -0 -1 -0 255 255 255 
-0.8 -1 1.19209e-07 -0 -1 -0 255 255 255 
-0.565685 -1 -0.565685 -0 -1 -0 255 255 255 
-0.275486 -1 -1 -0 -1 -0 255 255 255 
-0.739104 -1 -0.306147 -0 -1 -0 255 255 255 
0.0843121 -1 -1 -0 -1 -0 255 255 255 
-0.306147 -1 -0.739104 -0 -1 -0 255 255 255 
1 -1 -1 0 -1 0 255 255 255 
1 -1 -0.998912 -0 -1 -0 255 255 255 
0 -1 -0.8 -0 -1 -0 255 255 255 
1 -1 -0.601088 -0 -1 -0 255 255 255 
0.306147 -1 -0.739104 -0 -1 -0 255 255 255 
1 -1 -0.275486 -0 -1 -0 255 255 255 
0.565686 -1 -0.565685 -0 -1 -0 255 255 255 
1 -1 0.0843125 -0 -1 -0 255 255 255 
0.739104 -1 -0.306147 -0 -1 -0 255 255 255 
0.8 -1 0 -0 -1 -0 255 255 255 
0.667271 -1 0.667271 -0 -1 -0 255 255 255 
0.616478 -1 0.922625 -0 -1 -0 255 255 255 
0.739104 -1 0.306147 -0 -1 -0 255 255 255 
0.565685 -1 0.565685 -0 -1 -0 255 255 255 
0.361125 -1 0.871832 -0 -1 -0 255 255 255 
0.165686 -1 0.832957 -0 -1 -0 255 255 255 
0.306147 -1 0.739104 -0 -1 -0 255 255 255 
5.96046e-08 -1 0.8 -0 -1 -0 255 255 255 
0.998642 1 0.998642 -0 1 -0 255 255 255 
-1 1 0.601088 -0 1 -0 255 255 255 
-1 1 1 0 1 0 255 255 255 
1 1 1 0 1 0 255 255 255 
1 1 0.998912 -0 1 -0 255 255 255 
-0.306147 1 0.739104 -0 1 -0 255 255 255 
-1 1 0.275486 -0 1 -0 255 255 255 
-0.565685 1 0.565686 -0 1 -0 255 255 255 
-1 1 -0.0843125 -0 1 -0 255 255 255 
-0.739104 1 0.306147 -0 1 -0 255 255 255 
-0.998642 1 -0.998642 -0 1 -0 255 255 255 
-1 1 -1 0 1 0 255 255 255 
-0.998912 1 -1 -0 1 -0 255 255 255 
-0.8 1 1.19209e-07 -0 1 -0 255 255 255 
-0.667271 1 -0.667271 -0 1 -0 255 255 255 
-0.601088 1 -1 -0 1 -0 255 255 255 
-0.739104 1 -0.306147 -0 1 -0 255 255 255 
-0.565685 1 -0.565685 -0 1 -0 255 255 255 
-0.275486 1 -1 -0 1 -0 255 255 255 
0.0843121 1 -1 -0 1 -0 255 255 255 
-0.306146 1 -0.739104 -0 1 -0 255 255 255 
1 1 -0.998912 -0 1 -0 255 255 255 
1 1 -1 0 1 0 255 255 255 
8.9407e-08 1 -0.8 -0 1 -0 255 255 255 
1 1 -0.601088 -0 1 -0 255 255 255 
0.306147 1 -0.739104 -0 1 -0 255 255 255 
1 1 -0.275486 -0 1 -0 255 255 255 
0.565686 1 -0.565685 -0 1 -0 255 255 255 
1 1 0.0843125 -0 1 -0 255 255 255 
0.739104 1 -0.306147 -0 1 -0 255 255 255 
0.616478 1 0.922625 -0 1 -0 255 255 255 
0.667271 1 0.667271 -0 1 -0 255 255 255 
0.8 1 -2.38419e-07 -0 1 -0 255 255 255 
0.361125 1 0.871832 -0 1 -0 255 255 255 
0.565685 1 0.565685 -0 1 -0 255 255 255 
0.739104 1 0.306147 -0 1 -0 255 255 255 
0.165686 1 0.832957 -0 1 -0 255 255 255 
1.63913e-07 1 0.8 -0 1 -0 255 255 255 
0.306147 1 0.739104 -0 1 -0 255 255 255 
-0.998912 -0.998912 -1 -0 -0 -1 255 255 255 
-1 -1 -1 0 0 -1 255 255 255 
-1 1 -1 0 0 -1 255 255 255 
-0.998912 1 -1 -0 -0 -1 255 255 255 
-0.998912 -1 -1 -0 -0 -1 255 255 255 
-0.601088 -0.601088 -1 -0 -0 -1 255 255 255 
-0.601088 1 -1 -0 -0 -1 255 255 255 
-0.601088 -1 -1 -0 -0 -1 255 255 255 
-0.275486 -0.275486 -1 -0 -0 -1 255 255 255 
-0.275486 1 -1 -0 -0 -1 255 255 255 
-0.275486 -1 -1 -0 -0 -1 255 255 255 
0.0843121 0.0843121 -1 -0 -0 -1 255 255 255 
0.0843121 1 -1 -0 -0 -1 255 255 255 
0.0843121 -1 -1 -0 -0 -1 255 255 255 
1 1 -1 0 0 -1 255 255 255 
1 -1 -1 0 0 -1 255 255 255 
-1 -1 1 0 0 1 255 255 255 
1 -1 1 0 0 1 255 255 255 
1 1 1 0 0 1 255 255 255 
-1 1 1 0 0 1 255 255 255 
0 1 0.8 -0 -0 -1 255 255 255 
0 -1 0.8 -0 -0 -1 255 255 255 
-0.306147 -1 0.739104 0.382683 -0 -0.92388 255 255 255 
-0.306147 1 0.739104 0.382683 -0 -0.92388 255 255 255 
-0.565685 -1 0.565685 0.707107 -0 -0.707107 255 255 255 
-0.565685 1 0.565685 0.707107 -0 -0.707107 255 255 255 
-0.739104 -1 0.306147 0.92388 -0 -0.382683 255 255 255 
-0.739104 1 0.306147 0.92388 -0 -0.382683 255 255 255 
-0.8 -1 -3.49691e-08 1 -0 4.37114e-08 255 255 255 
-0.8 1 -3.49691e-08 1 -0 4.37114e-08 255 255 255 
-0.739104 -1 -0.306147 0.92388 -0 0.382684 255 255 255 
-0.739104 1 -0.306147 0.92388 -0 0.382684 255 255 255 
-0.565685 -1 -0.565685 0.707107 -0 0.707107 255 255 255 
-0.565685 1 -0.565685 0.707107 -0 0.707107 255 255 255 
-0.306147 -1 -0.739104 0.382683 -0 0.92388 255 255 255 
-0.306147 1 -0.739104 0.382683 -0 0.92388 255 255 255 
6.99382e-08 -1 -0.8 -8.74228e-08 -0 1 255 255 255 
6.99382e-08 1 -0.8 -8.74228e-08 -0 1 255 255 255 
0.306147 -1 -0.739104 -0.382683 -0 0.92388 255 255 255 
0.306147 1 -0.739104 -0.382683 -0 0.92388 255 255 255 
0.565686 -1 -0.565685 -0.707107 -0 0.707107 255 255 255 
0.565686 1 -0.565685 -0.707107 -0 0.707107 255 255 255 
0.739104 -1 -0.306147 -0.92388 -0 0.382683 255 255 255 
0.739104 1 -0.306147 -0.92388 -0 0.382683 255 255 255 
0.8 -1 9.5399e-09 -1 -0 -1.19249e-08 255 255 255 
0.8 1 9.5399e-09 -1 -0 -1.19249e-08 255 255 255 
0.739104 -1 0.306147 -0.923879 -0 -0.382684 255 255 255 
0.739104 1 0.306147 -0.923879 -0 -0.382684 255 255 255 
0.565685 -1 0.565686 -0.707107 -0 -0.707107 255 255 255 
0.565685 1 0.565686 -0.707107 -0 -0.707107 255 255 255 
0.306147 -1 0.739104 -0.382683 -0 -0.92388 255 255 255 
0.306147 1 0.739104 -0.382683 -0 -0.92388 255 255 255 
3 0 1 2
3 0 2 3
3 0 3 4
3 0 5 6
3 0 6 1
3 5 0 4
3 5 4 7
3 5 8 9
3 5 9 6
3 8 5 7
3 8 7 10
3 8 11 9
3 11 8 10
3 11 10 12
3 13 14 15
3 16 13 15
3 16 15 17
3 18 19 20
3 18 20 21
3 22 19 18
3 23 18 21
3 23 21 24
3 25 22 18
3 25 18 23
3 26 23 24
3 26 24 27
3 28 25 23
3 28 23 26
3 29 26 27
3 29 27 30
3 31 28 26
3 31 26 29
3 13 29 30
3 13 30 14
3 16 31 29
3 16 29 13
3 32 33 34
3 35 32 34
3 35 34 36
3 37 35 38
3 39 38 40
3 41 42 43
3 44 40 42
3 44 42 41
3 45 41 43
3 45 43 46
3 47 41 45
3 48 45 46
3 48 46 49
3 50 45 48
3 48 49 51
3 52 51 53
3 52 53 54
3 55 54 56
3 57 56 58
3 59 58 60
3 32 61 60
3 32 60 33
3 62 32 63
3 64 63 32
3 65 63 66
3 64 67 66
3 64 66 63
3 67 68 66
3 69 68 70
3 71 72 73
3 71 73 74
3 71 74 75
3 76 77 72
3 78 79 77
3 80 81 82
3 80 82 79
3 83 82 81
3 84 85 81
3 86 83 81
3 86 81 85
3 87 88 85
3 89 86 85
3 89 85 88
3 90 89 88
3 90 91 92
3 90 92 93
3 94 95 92
3 96 97 95
3 98 99 97
3 100 71 75
3 100 75 99
3 101 71 102
3 103 102 71
3 104 101 102
3 104 102 105
3 106 105 102
3 107 104 105
3 108 107 109
3 110 111 112
3 110 112 113
3 114 111 110
3 115 110 113
3 115 113 116
3 117 114 110
3 117 110 115
3 118 115 116
3 118 116 119
3 120 117 115
3 120 115 118
3 121 118 119
3 121 119 122
3 123 120 118
3 123 118 121
3 121 122 124
3 123 121 124
3 123 124 125
3 126 127 128
3 126 128 129
3 130 131 132
3 133 130 132
3 133 132 134
3 135 133 134
3 135 134 136
3 137 135 136
3 137 136 138
3 139 137 138
3 139 138 140
3 141 139 140
3 141 140 142
3 143 141 142
3 143 142 144
3 145 143 144
3 145 144 146
3 147 145 146
3 147 146 148
3 149 147 148
3 149 148 150
3 151 149 150
3 151 150 152
3 153 151 152
3 153 152 154
3 155 153 154
3 155 154 156
3 157 155 156
3 157 156 158
3 159 157 158
3 159 158 160
3 161 159 160
3 161 160 131
3 130 161 131
