ply
format ascii 1.0
element vertex 559
property float x
property float y
property float z
property float nx
property float ny
property float nz
property uchar red
property uchar green
property uchar blue
element face 686
property list uchar int32 vertex_indices
end_header
-1 0.946318 0.946318 -1 -0 -0 255 255 255 
-1 0.94027 1 -1 -0 -0 255 255 255 
-1 1 1 -1 0 0 255 255 255 
-1 1 0.469889 -1 -0 -0 255 255 255 
-1 -1 0.469885 -1 -0 -0 255 255 255 
-1 -1 1 -1 0 0 255 255 255 
-1 -0.940269 1 -1 -0 -0 255 255 255 
-1 0.829187 0.829187 -1 -0 -0 255 255 255 
-1 0.800382 1 -1 -0 -0 255 255 255 
-1 1 -0.183762 -1 -0 -0 255 255 255 
-1 -1 -0.183764 -1 -0 -0 255 255 255 
-1 -0.800382 1 -1 -0 -0 255 255 255 
-1 0.716774 0.716774 -1 -0 -0 255 255 255 
-1 0.660437 1 -1 -0 -0 255 255 255 
-1 1 -0.707098 -1 -0 -0 255 255 255 
-1 0.685195 0.685195 -1 -0 -0 255 255 255 
-1 0.474849 1 -1 -0 -0 255 255 255 
-1 0.739104 0.604515 -1 -0 -0 255 255 255 
-1 0.565685 0.864054 -1 -0 -0 255 255 255 
-1 0.362228 1 -1 -0 -0 255 255 255 
-1 -0.810997 0.937051 -1 -0 -0 255 255 255 
-1 -0.494533 1 -1 -0 -0 255 255 255 
-1 -0.85602 0.670058 -1 -0 -0 255 255 255 
-1 -0.362228 1 -1 -0 -0 255 255 255 
-1 -0.910271 0.348346 -1 -0 -0 255 255 255 
-1 -0.565686 0.864054 -1 -0 -0 255 255 255 
-1 -1 -0.707101 -1 -0 -0 255 255 255 
-1 -0.739103 0.604516 -1 -0 -0 255 255 255 
-1 0.570091 0.85746 -1 -0 -0 255 255 255 
-1 0.617769 0.617769 -1 -0 -0 255 255 255 
-1 0.939563 -1 -1 -0 -0 255 255 255 
-1 1 -1 -1 0 0 255 255 255 
-1 0.446176 0.446176 -1 -0 -0 255 255 255 
-1 0.0761222 1 -1 -0 -0 255 255 255 
-1 0.739104 0.00777793 -1 -0 -0 255 255 255 
-1 0.386826 0.386826 -1 -0 -0 255 255 255 
-1 -0.446541 0.943664 -1 -0 -0 255 255 255 
-1 0.565686 0.267316 -1 -0 -0 255 255 255 
-1 0.306146 0.440735 -1 -0 -0 255 255 255 
-1 -0.713075 0.643471 -1 -0 -0 255 255 255 
-1 -1.78814e-07 0.501631 -1 -0 -0 255 255 255 
-1 -0.79086 0.34432 -1 -0 -0 255 255 255 
-1 -0.306147 0.440735 -1 -0 -0 255 255 255 
-1 -0.843039 0.0819948 -1 -0 -0 255 255 255 
-1 -0.565685 0.267317 -1 -0 -0 255 255 255 
-1 -0.908116 -0.245166 -1 -0 -0 255 255 255 
-1 -0.739104 0.00777763 -1 -0 -0 255 255 255 
-1 -0.924556 -0.924556 -1 -0 -0 255 255 255 
-1 -1 -1 -1 0 0 255 255 255 
-1 -0.939563 -1 -1 -0 -0 255 255 255 
-1 0.592737 0.226831 -1 -0 -0 255 255 255 
-1 0.799618 -1 -1 -0 -0 255 255 255 
-1 0.103428 0.481058 -1 -0 -0 255 255 255 
-1 0.239985 0.239985 -1 -0 -0 255 255 255 
-1 0.739104 -0.641143 -1 -0 -0 255 255 255 
-1 -0.36697 0.400094 -1 -0 -0 255 255 255 
-1 0.0619961 0.0619961 -1 -0 -0 255 255 255 
-1 0.565686 -0.334997 -1 -0 -0 255 255 255 
-1 -0.677277 0.100308 -1 -0 -0 255 255 255 
-1 -0.0474666 -0.0474666 -1 -0 -0 255 255 255 
-1 0.306147 -0.130436 -1 -0 -0 255 255 255 
-1 -0.789138 -0.243762 -1 -0 -0 255 255 255 
-1 -0.0765694 -0.0765694 -1 -0 -0 255 255 255 
-1 -4.47035e-07 -0.0586037 -1 -0 -0 255 255 255 
-1 -0.852206 -0.560823 -1 -0 -0 255 255 255 
-1 -0.306147 -0.130436 -1 -0 -0 255 255 255 
-1 -0.565685 -0.334997 -1 -0 -0 255 255 255 
-1 -0.867095 -0.867095 -1 -0 -0 255 255 255 
-1 -0.938039 -0.992337 -1 -0 -0 255 255 255 
-1 -0.739104 -0.641144 -1 -0 -0 255 255 255 
-1 -0.758973 -0.758973 -1 -0 -0 255 255 255 
-1 -0.799617 -1 -1 -0 -0 255 255 255 
-1 0.589547 -0.377121 -1 -0 -0 255 255 255 
-1 0.65973 -1 -1 -0 -0 255 255 255 
-1 0.127485 -0.0885161 -1 -0 -0 255 255 255 
-1 0.472475 -1 -1 -0 -0 255 255 255 
-1 -0.35058 -0.165457 -1 -0 -0 255 255 255 
-1 -0.265645 -0.265645 -1 -0 -0 255 255 255 
-1 0.356911 -1 -1 -0 -0 255 255 255 
-1 -0.706943 -0.584369 -1 -0 -0 255 255 255 
-1 -0.616225 -0.616225 -1 -0 -0 255 255 255 
-1 0.306146 -0.940119 -1 -0 -0 255 255 255 
-1 1.40071e-06 -0.832615 -1 -0 -0 255 255 255 
-1 -0.476671 -1 -1 -0 -0 255 255 255 
-1 -0.306148 -0.94012 -1 -0 -0 255 255 255 
-1 -0.356912 -1 -1 -0 -0 255 255 255 
-1 0.0546071 -0.85179 -1 -0 -0 255 255 255 
-1 0.0743055 -1 -1 -0 -0 255 255 255 
1 0.673881 0.673881 1 -0 -0 255 255 255 
1 0.74011 -1 1 -0 -0 255 255 255 
1 1 -1 1 0 0 255 255 255 
1 1 1 1 0 0 255 255 255 
1 0.660978 1 1 -0 -0 255 255 255 
1 0.739104 -0.974568 1 -0 -0 255 255 255 
1 0.538062 0.538062 1 -0 -0 255 255 255 
1 0.476666 1 1 -0 -0 255 255 255 
1 0.565686 0.330223 1 -0 -0 255 255 255 
1 0.51167 0.51167 1 -0 -0 255 255 255 
1 0.366297 1 1 -0 -0 255 255 255 
1 -1 0.508203 1 -0 -0 255 255 255 
1 -0.508202 1 1 -0 -0 255 255 255 
1 -1 1 1 0 0 255 255 255 
1 -0.945442 -0.945442 1 -0 -0 255 255 255 
1 -1 -1 1 0 0 255 255 255 
1 -0.961684 -1 1 -0 -0 255 255 255 
1 -0.366298 1 1 -0 -0 255 255 255 
1 -0.703012 -0.703012 1 -0 -0 255 255 255 
1 -0.742484 -1 1 -0 -0 255 255 255 
1 -0.565686 0.330223 1 -0 -0 255 255 255 
1 -0.739103 -0.974563 1 -0 -0 255 255 255 
1 -0.74011 -1 1 -0 -0 255 255 255 
1 0.582049 0.207107 1 -0 -0 255 255 255 
1 0.479101 0.479101 1 -0 -0 255 255 255 
1 0.281944 1 1 -0 -0 255 255 255 
1 0.565686 0.250339 1 -0 -0 255 255 255 
1 0.421003 0.421003 1 -0 -0 255 255 255 
1 -0.0698464 1 1 -0 -0 255 255 255 
1 -0.422191 0.812245 1 -0 -0 255 255 255 
1 0.306147 0.556486 1 -0 -0 255 255 255 
1 -5.36442e-07 0.663991 1 -0 -0 255 255 255 
1 -0.520764 0.481123 1 -0 -0 255 255 255 
1 -0.306147 0.556486 1 -0 -0 255 255 255 
1 -0.578277 0.235487 1 -0 -0 255 255 255 
1 -0.565686 0.250339 1 -0 -0 255 255 255 
1 -0.582049 0.207106 1 -0 -0 255 255 255 
1 0.263258 0.571547 1 -0 -0 255 255 255 
1 0.354033 0.5 1 -0 -0 255 255 255 
1 0.306147 0.537743 1 -0 -0 255 255 255 
1 -0.092894 0.631371 1 -0 -0 255 255 255 
1 8.9407e-08 0.609575 1 -0 -0 255 255 255 
1 -0.325982 0.533089 1 -0 -0 255 255 255 
1 -0.306147 0.537743 1 -0 -0 255 255 255 
1 -0.354034 0.5 1 -0 -0 255 255 255 
1 0.71834 -0.818345 1 -0 -0 255 255 255 
1 0.687708 -1 1 -0 -0 255 255 255 
1 0.709031 -0.748303 1 -0 -0 255 255 255 
1 0.566456 -1 1 -0 -0 255 255 255 
1 -0.725884 -0.875097 1 -0 -0 255 255 255 
1 -0.567412 -1 1 -0 -0 255 255 255 
1 -0.709031 -0.748302 1 -0 -0 255 255 255 
1 -0.566456 -1 1 -0 -0 255 255 255 
1 0.65032 -0.85195 1 -0 -0 255 255 255 
1 0.693772 -0.633498 1 -0 -0 255 255 255 
1 0.676029 -0.5 1 -0 -0 255 255 255 
1 0.34194 -1 1 -0 -0 255 255 255 
1 0.565685 -0.665142 1 -0 -0 255 255 255 
1 0.0645341 -1 1 -0 -0 255 255 255 
1 0.306147 -0.83856 1 -0 -0 255 255 255 
1 -0.505468 -1 1 -0 -0 255 255 255 
1 -2.38419e-07 -0.899456 1 -0 -0 255 255 255 
1 -0.702572 -0.759706 1 -0 -0 255 255 255 
1 -0.306147 -0.83856 1 -0 -0 255 255 255 
1 -0.625305 -0.625305 1 -0 -0 255 255 255 
1 -0.687188 -0.583956 1 -0 -0 255 255 255 
1 -0.565686 -0.665142 1 -0 -0 255 255 255 
1 -0.605522 -0.605522 1 -0 -0 255 255 255 
1 -0.67603 -0.5 1 -0 -0 255 255 255 
1 0.325577 -0.825577 1 -0 -0 255 255 255 
1 0.653978 -0.33409 1 -0 -0 255 255 255 
1 -0.0637165 -0.886782 1 -0 -0 255 255 255 
1 0.565686 -0.466229 1 -0 -0 255 255 255 
1 -0.395087 -0.779131 1 -0 -0 255 255 255 
1 0.306147 -0.639647 1 -0 -0 255 255 255 
1 -2.98023e-08 -0.700544 1 -0 -0 255 255 255 
1 -0.584316 -0.584316 1 -0 -0 255 255 255 
1 -0.625114 -0.576201 1 -0 -0 255 255 255 
1 -0.306147 -0.639647 1 -0 -0 255 255 255 
1 -0.506066 -0.506066 1 -0 -0 255 255 255 
1 -0.662907 -0.401268 1 -0 -0 255 255 255 
1 -0.653979 -0.334089 1 -0 -0 255 255 255 
1 -0.565685 -0.466229 1 -0 -0 255 255 255 
1 0.444423 -0.547254 1 -0 -0 255 255 255 
1 0.637101 -0.207107 1 -0 -0 255 255 255 
1 0.13321 -0.674047 1 -0 -0 255 255 255 
1 0.565685 -0.333182 1 -0 -0 255 255 255 
1 -0.209825 -0.658807 1 -0 -0 255 255 255 
1 0.306147 -0.537743 1 -0 -0 255 255 255 
1 0 -0.609575 1 -0 -0 255 255 255 
1 -0.49373 -0.49373 1 -0 -0 255 255 255 
1 -0.541196 -0.482593 1 -0 -0 255 255 255 
1 -0.306147 -0.537743 1 -0 -0 255 255 255 
1 -0.435662 -0.435662 1 -0 -0 255 255 255 
1 -0.645498 -0.270276 1 -0 -0 255 255 255 
1 -0.637102 -0.207106 1 -0 -0 255 255 255 
1 -0.565686 -0.333182 1 -0 -0 255 255 255 
1 0.521 -0.368402 1 -0 -0 255 255 255 
1 0.622794 -0.0994565 1 -0 -0 255 255 255 
1 0.354033 -0.5 1 -0 -0 255 255 255 
1 0.565686 -0.250339 1 -0 -0 255 255 255 
1 -0.354034 -0.5 1 -0 -0 255 255 255 
1 -0.421004 -0.421004 1 -0 -0 255 255 255 
1 -0.63239 -0.171656 1 -0 -0 255 255 255 
1 -0.622794 -0.0994559 1 -0 -0 255 255 255 
1 -0.565686 -0.250339 1 -0 -0 255 255 255 
1 0.582049 -0.207106 1 -0 -0 255 255 255 
1 0.609575 -7.7486e-07 1 -0 -0 255 255 255 
1 -0.609575 9.53674e-07 1 -0 -0 255 255 255 
1 -0.582049 -0.207107 1 -0 -0 255 255 255 
0.918406 -1 0.918406 -0 -1 -0 255 255 255 
1 -1 0.508203 -0 -1 -0 255 255 255 
1 -1 1 0 -1 0 255 255 255 
0.902176 -1 1 -0 -1 -0 255 255 255 
0.646824 -1 0.646824 -0 -1 -0 255 255 255 
0.974398 -1 -1 -0 -1 -0 255 255 255 
1 -1 -1 0 -1 0 255 255 255 
0.576574 -1 1 -0 -1 -0 255 255 255 
0.346721 -1 0.346721 -0 -1 -0 255 255 255 
0.6146 -1 -1 -0 -1 -0 255 255 255 
0.216775 -1 1 -0 -1 -0 255 255 255 
-0.421606 -1 -0.421606 -0 -1 -0 255 255 255 
-0.306557 -1 -1 -0 -1 -0 255 255 255 
-0.704381 -1 1 -0 -1 -0 255 255 255 
-1 -1 0.469885 -0 -1 -0 255 255 255 
-0.428932 -1 -0.384777 -0 -1 -0 255 255 255 
-1 -1 1 0 -1 0 255 255 255 
-0.387511 -1 -0.593016 -0 -1 -0 255 255 255 
-0.510702 -1 -0.510702 -0 -1 -0 255 255 255 
-1 -1 -0.183764 -0 -1 -0 255 255 255 
-0.338651 -1 -0.838651 -0 -1 -0 255 255 255 
-0.755696 -1 -0.755696 -0 -1 -0 255 255 255 
-1 -1 -0.707101 -0 -1 -0 255 255 255 
-1 -1 -1 0 -1 0 255 255 255 
-0.421605 1 -0.421605 -0 1 -0 255 255 255 
-0.70438 1 1 -0 1 -0 255 255 255 
1 1 1 0 1 0 255 255 255 
-0.306555 1 -1 -0 1 -0 255 255 255 
1 1 -1 0 1 0 255 255 255 
-0.428931 1 -0.384776 -0 1 -0 255 255 255 
-1 1 0.469889 -0 1 -0 255 255 255 
-1 1 1 0 1 0 255 255 255 
-0.510701 1 -0.510701 -0 1 -0 255 255 255 
-1 1 -0.183762 -0 1 -0 255 255 255 
-0.38751 1 -0.593015 -0 1 -0 255 255 255 
-0.755694 1 -0.755694 -0 1 -0 255 255 255 
-1 1 -0.707099 -0 1 -0 255 255 255 
-0.33865 1 -0.83865 -0 1 -0 255 255 255 
-1 1 -1 0 1 0 255 255 255 
0.783228 0.783228 -1 -0 -0 -1 255 255 255 
-0.306556 1 -1 -0 -0 -1 255 255 255 
1 1 -1 0 0 -1 255 255 255 
1 0.74011 -1 -0 -0 -1 255 255 255 
0.974398 -1 -1 -0 -0 -1 255 255 255 
1 -0.961684 -1 -0 -0 -1 255 255 255 
1 -1 -1 0 0 -1 255 255 255 
0.6146 -1 -1 -0 -0 -1 255 255 255 
1 -0.742484 -1 -0 -0 -1 255 255 255 
-0.306557 -1 -1 -0 -0 -1 255 255 255 
1 -0.74011 -1 -0 -0 -1 255 255 255 
-0.168179 0.972475 -1 -0 -0 -1 255 255 255 
-1 0.939563 -1 -0 -0 -1 255 255 255 
-1 1 -1 0 0 -1 255 255 255 
-0.941863 -0.941863 -1 -0 -0 -1 255 255 255 
-1 -1 -1 0 0 -1 255 255 255 
-1 -0.939563 -1 -0 -0 -1 255 255 255 
-0.168179 -0.972475 -1 -0 -0 -1 255 255 255 
0.0857862 0.921958 -1 -0 -0 -1 255 255 255 
-1 0.799618 -1 -0 -0 -1 255 255 255 
-0.819909 -0.819909 -1 -0 -0 -1 255 255 255 
-1 -0.799617 -1 -0 -0 -1 255 255 255 
0.0857863 -0.921958 -1 -0 -0 -1 255 255 255 
0.301087 0.879132 -1 -0 -0 -1 255 255 255 
-1 0.65973 -1 -0 -0 -1 255 255 255 
-0.529303 0.739104 -1 -0 -0 -1 255 255 255 
-1 0.472475 -1 -0 -0 -1 255 255 255 
-0.83545 0.565685 -1 -0 -0 -1 255 255 255 
-1 0.356911 -1 -0 -0 -1 255 255 255 
-0.922168 -0.808387 -1 -0 -0 -1 255 255 255 
-1 -0.476671 -1 -0 -0 -1 255 255 255 
-0.716546 -0.716546 -1 -0 -0 -1 255 255 255 
-1 -0.356912 -1 -0 -0 -1 255 255 255 
-0.617065 -0.842765 -1 -0 -0 -1 255 255 255 
-0.663237 -0.663237 -1 -0 -0 -1 255 255 255 
-0.835451 -0.565685 -1 -0 -0 -1 255 255 255 
-0.279073 -0.880848 -1 -0 -0 -1 255 255 255 
0.301087 -0.879132 -1 -0 -0 -1 255 255 255 
-0.529303 -0.739104 -1 -0 -0 -1 255 255 255 
-0.813022 0.57839 -1 -0 -0 -1 255 255 255 
0.5 0.839566 -1 -0 -0 -1 255 255 255 
-0.00505918 0.739104 -1 -0 -0 -1 255 255 255 
-1 0.0743055 -1 -0 -0 -1 255 255 255 
-0.264598 0.565685 -1 -0 -0 -1 255 255 255 
-0.935629 -0.438583 -1 -0 -0 -1 255 255 255 
-0.438016 0.306147 -1 -0 -0 -1 255 255 255 
-0.622793 -0.622793 -1 -0 -0 -1 255 255 255 
-0.634119 -0.67973 -1 -0 -0 -1 255 255 255 
-0.498912 -2.98023e-08 -1 -0 -0 -1 255 255 255 
-0.416137 -0.416137 -1 -0 -0 -1 255 255 255 
-0.345738 -0.770058 -1 -0 -0 -1 255 255 255 
-0.438016 -0.306147 -1 -0 -0 -1 255 255 255 
-0.385196 -0.385196 -1 -0 -0 -1 255 255 255 
-0.100396 -0.81143 -1 -0 -0 -1 255 255 255 
0.171907 -0.857349 -1 -0 -0 -1 255 255 255 
-0.264597 -0.565686 -1 -0 -0 -1 255 255 255 
0.5 -0.839566 -1 -0 -0 -1 255 255 255 
-0.0050593 -0.739104 -1 -0 -0 -1 255 255 255 
-0.173689 0.626429 -1 -0 -0 -1 255 255 255 
0.698912 0.8 -1 -0 -0 -1 255 255 255 
-0.466038 0.165269 -1 -0 -0 -1 255 255 255 
0.392765 0.739103 -1 -0 -0 -1 255 255 255 
-0.440607 -0.293118 -1 -0 -0 -1 255 255 255 
0.133227 0.565686 -1 -0 -0 -1 255 255 255 
-0.0401911 0.306147 -1 -0 -0 -1 255 255 255 
-0.126188 -0.126188 -1 -0 -0 -1 255 255 255 
-0.219591 -0.595758 -1 -0 -0 -1 255 255 255 
-0.101088 -1.78814e-07 -1 -0 -0 -1 255 255 255 
-0.084316 -0.084316 -1 -0 -0 -1 255 255 255 
0.0480298 -0.749664 -1 -0 -0 -1 255 255 255 
0.28806 -0.797408 -1 -0 -0 -1 255 255 255 
-0.0401912 -0.306147 -1 -0 -0 -1 255 255 255 
0.533227 -0.832957 -1 -0 -0 -1 255 255 255 
0.133227 -0.565685 -1 -0 -0 -1 255 255 255 
0.698912 -0.8 -1 -0 -0 -1 255 255 255 
0.392766 -0.739104 -1 -0 -0 -1 255 255 255 
0.252917 0.64566 -1 -0 -0 -1 255 255 255 
0.725321 0.725321 -1 -0 -0 -1 255 255 255 
0.914213 0.757174 -1 -0 -0 -1 255 255 255 
-0.0507201 0.253214 -1 -0 -0 -1 255 255 255 
0.650322 0.650322 -1 -0 -0 -1 255 255 255 
0.807054 0.739104 -1 -0 -0 -1 255 255 255 
0.500907 0.565685 -1 -0 -0 -1 255 255 255 
0.259882 0.259882 -1 -0 -0 -1 255 255 255 
-0.0696233 -0.158182 -1 -0 -0 -1 255 255 255 
0.296347 0.306147 -1 -0 -0 -1 255 255 255 
0.293342 0.293342 -1 -0 -0 -1 255 255 255 
0.102556 -0.519783 -1 -0 -0 -1 255 255 255 
0.398186 -0.740182 -1 -0 -0 -1 255 255 255 
0.224514 -1.19209e-07 -1 -0 -0 -1 255 255 255 
0.68311 -0.796857 -1 -0 -0 -1 255 255 255 
0.296347 -0.306147 -1 -0 -0 -1 255 255 255 
0.858514 -0.768253 -1 -0 -0 -1 255 255 255 
0.500907 -0.565686 -1 -0 -0 -1 255 255 255 
0.914213 -0.757174 -1 -0 -0 -1 255 255 255 
0.807054 -0.739104 -1 -0 -0 -1 255 255 255 
0.645883 0.647808 -1 -0 -0 -1 255 255 255 
0.648052 0.648052 -1 -0 -0 -1 255 255 255 
1 0.687708 -1 -0 -0 -1 255 255 255 
0.294797 0.299542 -1 -0 -0 -1 255 255 255 
0.302432 0.302432 -1 -0 -0 -1 255 255 255 
1 0.566456 -1 -0 -0 -1 255 255 255 
0.24213 -0.0750791 -1 -0 -0 -1 255 255 255 
0.997964 0.565685 -1 -0 -0 -1 255 255 255 
0.421188 -0.46454 -1 -0 -0 -1 255 255 255 
0.691817 0.306147 -1 -0 -0 -1 255 255 255 
0.846168 -0.745699 -1 -0 -0 -1 255 255 255 
0.584313 0 -1 -0 -0 -1 255 255 255 
0.691817 -0.306147 -1 -0 -0 -1 255 255 255 
1 -0.567412 -1 -0 -0 -1 255 255 255 
0.997964 -0.565685 -1 -0 -0 -1 255 255 255 
1 -0.566456 -1 -0 -0 -1 255 255 255 
0.689914 0.300727 -1 -0 -0 -1 255 255 255 
1 0.34194 -1 -0 -0 -1 255 255 255 
0.603138 -0.0536092 -1 -0 -0 -1 255 255 255 
1 0.0645342 -1 -0 -0 -1 255 255 255 
0.966476 -0.538992 -1 -0 -0 -1 255 255 255 
1 -0.505468 -1 -0 -0 -1 255 255 255 
0.717225 0.717225 1 -0 -0 1 255 255 255 
1 0.660978 1 -0 -0 1 255 255 255 
1 1 1 0 0 1 255 255 255 
-0.704379 1 1 -0 -0 1 255 255 255 
0.686284 0.686284 1 -0 -0 1 255 255 255 
1 0.476666 1 -0 -0 1 255 255 255 
0.607235 0.739103 1 -0 -0 1 255 255 255 
0.866773 0.565686 1 -0 -0 1 255 255 255 
1 0.366297 1 -0 -0 1 255 255 255 
0.902176 -1 1 -0 -0 1 255 255 255 
1 -1 1 0 0 1 255 255 255 
1 -0.508202 1 -0 -0 1 255 255 255 
0.576574 -1 1 -0 -0 1 255 255 255 
1 -0.366298 1 -0 -0 1 255 255 255 
0.216775 -1 1 -0 -0 1 255 255 255 
0.866774 -0.565685 1 -0 -0 1 255 255 255 
-0.704381 -1 1 -0 -0 1 255 255 255 
0.607234 -0.739104 1 -0 -0 1 255 255 255 
0.747083 0.64566 1 -0 -0 1 255 255 255 
0.660295 0.660295 1 -0 -0 1 255 255 255 
-1 0.94027 1 -0 -0 1 255 255 255 
-1 1 1 0 0 1 255 255 255 
0.541604 0.541604 1 -0 -0 1 255 255 255 
1 0.281944 1 -0 -0 1 255 255 255 
0.192946 0.739104 1 -0 -0 1 255 255 255 
0.528445 0.528445 1 -0 -0 1 255 255 255 
1 -0.0698463 1 -0 -0 1 255 255 255 
0.499092 0.565686 1 -0 -0 1 255 255 255 
0.703654 0.306147 1 -0 -0 1 255 255 255 
0.897444 -0.519783 1 -0 -0 1 255 255 255 
0.775486 -6.25849e-07 1 -0 -0 1 255 255 255 
0.601815 -0.740182 1 -0 -0 1 255 255 255 
0.703654 -0.306147 1 -0 -0 1 255 255 255 
0.31689 -0.796857 1 -0 -0 1 255 255 255 
0.499093 -0.565685 1 -0 -0 1 255 255 255 
-0.0312649 -0.866109 1 -0 -0 1 255 255 255 
0.192946 -0.739103 1 -0 -0 1 255 255 255 
-0.928154 -0.928154 1 -0 -0 1 255 255 255 
-1 -1 1 0 0 1 255 255 255 
-1 -0.940269 1 -0 -0 1 255 255 255 
0.354117 0.647807 1 -0 -0 1 255 255 255 
-1 0.800382 1 -0 -0 1 255 255 255 
0.705203 0.299542 1 -0 -0 1 255 255 255 
0.410925 0.410925 1 -0 -0 1 255 255 255 
-0.456145 0.739104 1 -0 -0 1 255 255 255 
0.75787 -0.0750792 1 -0 -0 1 255 255 255 
0.307081 0.307081 1 -0 -0 1 255 255 255 
0.00203675 0.565685 1 -0 -0 1 255 255 255 
0.578813 -0.46454 1 -0 -0 1 255 255 255 
0.308183 0.306147 1 -0 -0 1 255 255 255 
0.153833 -0.745699 1 -0 -0 1 255 255 255 
0.415688 4.17233e-07 1 -0 -0 1 255 255 255 
-0.30072 -0.82235 1 -0 -0 1 255 255 255 
0.308183 -0.306147 1 -0 -0 1 255 255 255 
0.00203663 -0.565685 1 -0 -0 1 255 255 255 
-0.911424 -0.911424 1 -0 -0 1 255 255 255 
-0.977701 -0.936509 1 -0 -0 1 255 255 255 
-0.456145 -0.739104 1 -0 -0 1 255 255 255 
-0.775035 -0.775035 1 -0 -0 1 255 255 255 
-1 -0.800383 1 -0 -0 1 255 255 255 
-0.160549 0.627223 1 -0 -0 1 255 255 255 
-1 0.660437 1 -0 -0 1 255 255 255 
0.310086 0.300727 1 -0 -0 1 255 255 255 
0.301825 0.301825 1 -0 -0 1 255 255 255 
-1 0.474849 1 -0 -0 1 255 255 255 
0.396862 -0.0536091 1 -0 -0 1 255 255 255 
0.0497301 0.0497301 1 -0 -0 1 255 255 255 
-1 0.362228 1 -0 -0 1 255 255 255 
0.0335241 -0.538992 1 -0 -0 1 255 255 255 
-0.252734 -0.252734 1 -0 -0 1 255 255 255 
-0.811614 0.306147 1 -0 -0 1 255 255 255 
-0.505468 2.98023e-08 1 -0 -0 1 255 255 255 
-1 -0.494533 1 -0 -0 1 255 255 255 
-0.811614 -0.306147 1 -0 -0 1 255 255 255 
-1 -0.362228 1 -0 -0 1 255 255 255 
-0.630676 0.125209 1 -0 -0 1 255 255 255 
-1 0.0761221 1 -0 -0 1 255 255 255 
0.806147 0.739104 0 -0.382683 -0.92388 -0 255 255 255 
0.782843 0.739104 0.117157 -0.353553 -0.92388 -0.146447 255 255 255 
0.5 0.8 0 -0 -1 -0 255 255 255 
1 0.58381 0.193853 -0.625 -0.729763 -0.242317 255 255 255 
1 0.582049 0.207107 -0.625 -0.727561 -0.258883 255 255 255 
1 0.609575 0 -0.625 -0.761969 -0 255 255 255 
1 -0.605959 0.0272078 -0.625 0.757449 -0.0340098 255 255 255 
0.782843 -0.739104 0.117157 -0.353553 0.92388 -0.146447 255 255 255 
1 -0.582049 0.207107 -0.625 0.727561 -0.258883 255 255 255 
1 -0.609575 0 -0.625 0.761969 -0 255 255 255 
0.806147 -0.739104 0 -0.382683 0.92388 -0 255 255 255 
0.5 -0.8 0 8.74228e-08 1 0 255 255 255 
0.716478 0.739104 0.216478 -0.270598 -0.92388 -0.270598 255 255 255 
0.9 0.565685 0.4 -0.5 -0.707107 -0.5 255 255 255 
1 0.565685 0.250339 -0.625 -0.707107 -0.312924 255 255 255 
1 0.354033 0.5 -0.625 -0.442542 -0.625 255 255 255 
1 -0.473925 0.358579 -0.625 0.592406 -0.448223 255 255 255 
0.9 -0.565685 0.4 -0.5 0.707107 -0.5 255 255 255 
1 -0.354033 0.5 -0.625 0.442542 -0.625 255 255 255 
1 -0.565685 0.250339 -0.625 0.707107 -0.312924 255 255 255 
1 -0.578502 0.216478 -0.625 0.723127 -0.270598 255 255 255 
0.716478 -0.739104 0.216478 -0.270598 0.92388 -0.270598 255 255 255 
0.617157 0.739104 0.282843 -0.146447 -0.92388 -0.353553 255 255 255 
0.716478 0.565685 0.522625 -0.270598 -0.707107 -0.653281 255 255 255 
0.782843 0.306147 0.682843 -0.353553 -0.382683 -0.853553 255 255 255 
1 0.306147 0.537743 -0.625 -0.382683 -0.672179 255 255 255 
1 0.27415 0.54525 -0.625 -0.342687 -0.681563 255 255 255 
0.806147 -3.49691e-08 0.739104 -0.382683 4.37114e-08 -0.92388 255 255 255 
1 -3.49691e-08 0.609575 -0.625 4.37114e-08 -0.761969 255 255 255 
1 -0.0710975 0.592893 -0.625 0.0888719 -0.741117 255 255 255 
0.782843 -0.306147 0.682843 -0.353553 0.382684 -0.853553 255 255 255 
1 -0.306147 0.537743 -0.625 0.382684 -0.672179 255 255 255 
1 -0.325328 0.522625 -0.625 0.406659 -0.653281 255 255 255 
0.716478 -0.565685 0.522625 -0.270598 0.707107 -0.653281 255 255 255 
0.617157 -0.739104 0.282843 -0.146447 0.92388 -0.353553 255 255 255 
0.5 0.739104 0.306147 1.67276e-08 -0.92388 -0.382683 255 255 255 
0.5 0.565685 0.565685 3.09086e-08 -0.707107 -0.707107 255 255 255 
0.5 0.306147 0.739104 4.03841e-08 -0.382683 -0.92388 255 255 255 
0.5 -3.49691e-08 0.8 4.37114e-08 4.37114e-08 -1 255 255 255 
0.5 -0.306147 0.739104 4.03841e-08 0.382684 -0.92388 255 255 255 
0.5 -0.565685 0.565685 3.09086e-08 0.707107 -0.707107 255 255 255 
0.5 -0.739104 0.306147 1.67276e-08 0.92388 -0.382683 255 255 255 
0.382843 0.739104 0.282843 0.146447 -0.92388 -0.353553 255 255 255 
0.283522 0.565685 0.522625 0.270598 -0.707107 -0.653281 255 255 255 
0.217157 0.306147 0.682843 0.353553 -0.382683 -0.853553 255 255 255 
0.193853 -3.49691e-08 0.739104 0.382684 4.37114e-08 -0.92388 255 255 255 
0.217157 -0.306147 0.682843 0.353553 0.382684 -0.853553 255 255 255 
0.283522 -0.565685 0.522625 0.270598 0.707107 -0.653281 255 255 255 
0.382843 -0.739104 0.282843 0.146447 0.92388 -0.353553 255 255 255 
0.283522 0.739104 0.216478 0.270598 -0.92388 -0.270598 255 255 255 
0.1 0.565685 0.4 0.5 -0.707107 -0.5 255 255 255 
-0.0226251 0.306147 0.522625 0.653281 -0.382683 -0.653281 255 255 255 
-0.0656855 -3.49691e-08 0.565685 0.707107 4.37114e-08 -0.707107 255 255 255 
-0.0226251 -0.306147 0.522625 0.653281 0.382684 -0.653281 255 255 255 
0.1 -0.565685 0.4 0.5 0.707107 -0.5 255 255 255 
0.283522 -0.739104 0.216478 0.270598 0.92388 -0.270598 255 255 255 
0.217157 0.739104 0.117157 0.353553 -0.92388 -0.146447 255 255 255 
-0.0226252 0.565685 0.216478 0.653282 -0.707107 -0.270598 255 255 255 
-0.182843 0.306147 0.282843 0.853553 -0.382683 -0.353553 255 255 255 
-0.239104 -3.49691e-08 0.306147 0.92388 4.37114e-08 -0.382683 255 255 255 
-0.182843 -0.306147 0.282843 0.853553 0.382684 -0.353553 255 255 255 
-0.0226252 -0.565685 0.216478 0.653282 0.707107 -0.270598 255 255 255 
0.217157 -0.739104 0.117157 0.353553 0.92388 -0.146446 255 255 255 
0.193853 0.739104 -2.67642e-08 0.382683 -0.92388 3.34553e-08 255 255 255 
-0.0656855 0.565685 -4.94538e-08 0.707107 -0.707107 6.18172e-08 255 255 255 
-0.239104 0.306147 -6.46145e-08 0.92388 -0.382683 8.07681e-08 255 255 255 
-0.3 -3.49691e-08 -6.99382e-08 1 4.37114e-08 8.74228e-08 255 255 255 
-0.239104 -0.306147 -6.46145e-08 0.92388 0.382684 8.07681e-08 255 255 255 
-0.0656855 -0.565685 -4.94538e-08 0.707107 0.707107 6.18172e-08 255 255 255 
0.193853 -0.739104 -2.67642e-08 0.382683 0.92388 3.34552e-08 255 255 255 
0.217157 0.739104 -0.117157 0.353553 -0.92388 0.146447 255 255 255 
-0.0226251 0.565685 -0.216478 0.653281 -0.707107 0.270598 255 255 255 
-0.182843 0.306147 -0.282843 0.853553 -0.382683 0.353553 255 255 255 
-0.239104 -3.49691e-08 -0.306147 0.92388 4.37114e-08 0.382683 255 255 255 
-0.182843 -0.306147 -0.282843 0.853553 0.382684 0.353553 255 255 255 
-0.0226251 -0.565685 -0.216478 0.653281 0.707107 0.270598 255 255 255 
0.217157 -0.739104 -0.117157 0.353553 0.92388 0.146447 255 255 255 
0.283522 0.739104 -0.216478 0.270598 -0.92388 0.270598 255 255 255 
0.1 0.565685 -0.4 0.5 -0.707107 0.5 255 255 255 
-0.0226251 0.306147 -0.522625 0.653281 -0.382683 0.653282 255 255 255 
-0.0656853 -3.49691e-08 -0.565686 0.707107 4.37114e-08 0.707107 255 255 255 
-0.0226251 -0.306147 -0.522625 0.653281 0.382684 0.653282 255 255 255 
0.1 -0.565685 -0.4 0.5 0.707107 0.5 255 255 255 
0.283522 -0.739104 -0.216478 0.270598 0.92388 0.270598 255 255 255 
0.382843 0.739104 -0.282843 0.146446 -0.92388 0.353553 255 255 255 
0.283522 0.565685 -0.522625 0.270598 -0.707107 0.653282 255 255 255 
0.217158 0.306147 -0.682843 0.353553 -0.382683 0.853553 255 255 255 
0.193853 -3.49691e-08 -0.739104 0.382683 4.37114e-08 0.92388 255 255 255 
0.217158 -0.306147 -0.682843 0.353553 0.382684 0.853553 255 255 255 
0.283522 -0.565685 -0.522625 0.270598 0.707107 0.653282 255 255 255 
0.382843 -0.739104 -0.282843 0.146446 0.92388 0.353553 255 255 255 
0.5 0.739104 -0.306147 -4.56345e-09 -0.92388 0.382683 255 255 255 
0.5 0.565685 -0.565685 -8.43216e-09 -0.707107 0.707107 255 255 255 
0.5 0.306147 -0.739104 -1.10172e-08 -0.382683 0.92388 255 255 255 
0.5 -3.49691e-08 -0.8 -1.19249e-08 4.37114e-08 1 255 255 255 
0.5 -0.306147 -0.739104 -1.10172e-08 0.382684 0.92388 255 255 255 
0.5 -0.565685 -0.565685 -8.43216e-09 0.707107 0.707107 255 255 255 
0.5 -0.739104 -0.306147 -4.56345e-09 0.92388 0.382683 255 255 255 
0.617157 0.739104 -0.282843 -0.146447 -0.92388 0.353553 255 255 255 
0.716479 0.565685 -0.522625 -0.270598 -0.707107 0.653281 255 255 255 
0.782843 0.306147 -0.682843 -0.353554 -0.382683 0.853553 255 255 255 
0.806147 -3.49691e-08 -0.739104 -0.382684 4.37114e-08 0.923879 255 255 255 
0.782843 -0.306147 -0.682843 -0.353554 0.382684 0.853553 255 255 255 
0.716479 -0.565685 -0.522625 -0.270598 0.707107 0.653281 255 255 255 
0.617157 -0.739104 -0.282843 -0.146447 0.92388 0.353553 255 255 255 
0.716479 0.739104 -0.216478 -0.270598 -0.92388 0.270598 255 255 255 
0.9 0.565685 -0.4 -0.5 -0.707107 0.5 255 255 255 
1 0.325328 -0.522625 -0.625 -0.40666 0.653281 255 255 255 
1 0.354034 -0.5 -0.625 -0.442542 0.624999 255 255 255 
1 0.306147 -0.537743 -0.625 -0.382683 0.672179 255 255 255 
1 0.0710976 -0.592893 -0.625 -0.088872 0.741116 255 255 255 
1 -3.49691e-08 -0.609575 -0.625 4.37114e-08 0.761969 255 255 255 
1 -0.27415 -0.54525 -0.625 0.342687 0.681563 255 255 255 
1 -0.306147 -0.537743 -0.625 0.382684 0.672179 255 255 255 
0.9 -0.565685 -0.4 -0.5 0.707107 0.5 255 255 255 
1 -0.354034 -0.5 -0.625 0.442542 0.624999 255 255 255 
0.716478 -0.739104 -0.216478 -0.270598 0.92388 0.270598 255 255 255 
0.782843 0.739104 -0.117157 -0.353553 -0.92388 0.146447 255 255 255 
1 0.578502 -0.216478 -0.625 -0.723127 0.270598 255 255 255 
1 0.582049 -0.207107 -0.625 -0.727561 0.258883 255 255 255 
1 0.565685 -0.250339 -0.625 -0.707107 0.312924 255 255 255 
1 0.473925 -0.358579 -0.625 -0.592406 0.448223 255 255 255 
1 -0.565685 -0.250339 -0.625 0.707107 0.312924 255 255 255 
0.782843 -0.739104 -0.117157 -0.353553 0.92388 0.146447 255 255 255 
1 -0.582049 -0.207107 -0.625 0.727561 0.258883 255 255 255 
1 0.605959 -0.0272078 -0.625 -0.757449 0.0340098 255 255 255 
1 -0.58381 -0.193853 -0.625 0.729763 0.242317 255 255 255 
3 0 1 2
3 0 2 3
3 4 5 6
3 0 7 8
3 0 8 1
3 7 0 3
3 7 3 9
3 10 4 6
3 10 6 11
3 7 12 13
3 7 13 8
3 12 7 9
3 12 9 14
3 12 15 16
3 12 16 13
3 15 12 17
3 18 19 16
3 20 11 21
3 22 20 21
3 22 21 23
3 24 22 25
3 26 10 24
3 26 24 27
3 28 15 29
3 30 29 15
3 30 15 17
3 30 17 14
3 30 14 31
3 18 28 29
3 18 29 32
3 18 32 33
3 18 33 19
3 34 32 29
3 32 35 36
3 32 36 23
3 32 23 33
3 37 35 32
3 38 39 25
3 38 25 36
3 40 41 27
3 40 27 39
3 42 43 41
3 44 45 43
3 46 47 48
3 46 48 26
3 46 26 45
3 49 48 47
3 50 34 30
3 50 30 51
3 52 38 35
3 52 35 53
3 37 50 54
3 37 54 53
3 37 53 35
3 55 42 40
3 55 40 52
3 55 52 53
3 55 53 56
3 57 56 53
3 58 44 55
3 58 55 56
3 58 56 59
3 60 59 56
3 61 46 58
3 61 58 59
3 61 59 62
3 63 62 59
3 64 61 65
3 64 66 67
3 64 67 47
3 68 47 67
3 69 70 67
3 71 49 68
3 71 68 67
3 71 67 70
3 72 54 51
3 72 51 73
3 74 60 57
3 74 57 72
3 74 72 73
3 74 73 75
3 76 65 62
3 76 62 77
3 63 74 75
3 63 75 78
3 63 78 77
3 63 77 62
3 79 66 76
3 79 76 77
3 79 77 80
3 81 80 77
3 69 79 80
3 69 80 70
3 82 83 71
3 82 71 70
3 82 70 80
3 84 85 83
3 86 81 78
3 86 78 87
3 84 82 86
3 84 86 87
3 84 87 85
3 88 89 90
3 88 90 91
3 88 91 92
3 93 88 94
3 94 88 92
3 94 92 95
3 96 94 97
3 97 94 95
3 97 95 98
3 99 100 101
3 102 103 104
3 99 103 102
3 99 102 105
3 99 105 100
3 106 102 104
3 106 104 107
3 108 102 106
3 109 107 110
3 111 96 97
3 111 97 112
3 112 97 98
3 112 98 113
3 114 112 115
3 115 112 113
3 115 113 116
3 117 118 116
3 117 116 105
3 119 117 120
3 121 120 108
3 121 108 122
3 123 122 124
3 125 126 118
3 127 125 119
3 127 119 128
3 129 128 121
3 129 121 130
3 131 130 132
3 93 133 134
3 93 134 89
3 133 135 136
3 133 136 134
3 137 109 110
3 137 110 138
3 139 137 138
3 139 138 140
3 141 135 142
3 141 142 143
3 141 143 144
3 141 144 136
3 145 146 144
3 147 148 146
3 149 150 140
3 149 140 148
3 151 152 106
3 151 106 139
3 151 139 150
3 153 106 152
3 154 155 152
3 156 153 152
3 156 152 155
3 157 145 143
3 157 143 158
3 159 149 147
3 159 147 157
3 159 157 160
3 161 151 159
3 161 159 162
3 154 161 163
3 154 163 164
3 154 164 155
3 165 155 164
3 166 167 164
3 168 156 165
3 168 165 164
3 168 164 167
3 169 168 170
3 171 160 158
3 171 158 172
3 173 162 171
3 173 171 174
3 175 163 173
3 175 173 176
3 166 175 177
3 166 177 178
3 166 178 167
3 179 167 178
3 180 181 178
3 182 169 170
3 182 170 179
3 182 179 178
3 182 178 181
3 183 182 184
3 185 174 172
3 185 172 186
3 187 185 188
3 189 190 181
3 191 183 184
3 191 184 181
3 191 181 190
3 192 191 193
3 194 186 195
3 196 192 197
3 198 199 200
3 198 200 201
3 198 202 203
3 198 203 204
3 198 204 199
3 202 198 201
3 202 201 205
3 202 206 207
3 202 207 203
3 206 202 205
3 206 205 208
3 206 209 210
3 206 210 207
3 209 206 208
3 209 208 211
3 212 213 211
3 212 211 214
3 215 209 216
3 212 217 216
3 212 216 209
3 212 209 213
3 218 215 216
3 218 216 219
3 217 220 219
3 217 219 216
3 218 219 221
3 218 221 210
3 220 221 219
3 222 223 224
3 225 222 224
3 225 224 226
3 227 228 229
3 227 229 223
3 227 222 230
3 227 230 231
3 227 231 228
3 232 230 222
3 230 233 234
3 230 234 231
3 232 235 233
3 232 233 230
3 233 236 234
3 235 225 236
3 235 236 233
3 237 238 239
3 237 239 240
3 241 242 243
3 241 244 245
3 241 245 242
3 244 246 247
3 244 247 245
3 248 249 250
3 248 250 238
3 251 252 253
3 254 246 252
3 254 252 251
3 248 255 256
3 248 256 249
3 257 251 253
3 257 253 258
3 259 254 251
3 259 251 257
3 255 260 261
3 255 261 256
3 262 263 261
3 264 265 263
3 266 258 267
3 268 257 266
3 268 266 267
3 268 267 269
3 270 257 268
3 271 268 272
3 273 270 268
3 273 268 271
3 274 259 273
3 274 273 275
3 276 262 260
3 276 260 277
3 264 276 278
3 264 278 279
3 264 279 265
3 280 281 269
3 280 269 279
3 282 283 271
3 282 271 272
3 282 272 281
3 284 271 283
3 285 286 283
3 287 275 284
3 287 284 283
3 287 283 286
3 288 289 286
3 290 287 286
3 290 286 289
3 291 290 292
3 293 274 291
3 293 291 294
3 295 278 277
3 295 277 296
3 297 282 280
3 297 280 295
3 297 295 298
3 299 285 297
3 299 297 300
3 288 299 301
3 288 301 302
3 288 302 289
3 303 292 289
3 303 289 302
3 304 305 302
3 306 294 303
3 306 303 302
3 306 302 305
3 307 306 308
3 309 293 307
3 309 307 310
3 311 309 312
3 313 298 296
3 313 296 237
3 313 237 314
3 314 237 315
3 316 301 300
3 316 300 313
3 316 313 314
3 316 314 317
3 317 314 318
3 304 316 319
3 304 319 320
3 304 320 305
3 321 305 320
3 322 323 320
3 324 308 321
3 324 321 320
3 324 320 323
3 325 312 310
3 325 310 324
3 325 324 326
3 327 325 328
3 329 311 327
3 329 327 330
3 331 329 332
3 333 317 334
3 334 317 318
3 334 318 315
3 334 315 240
3 334 240 335
3 336 322 319
3 336 319 333
3 336 333 334
3 336 334 337
3 337 334 335
3 337 335 338
3 336 337 323
3 339 326 323
3 339 323 337
3 339 337 340
3 341 328 339
3 341 339 342
3 343 332 330
3 343 330 341
3 343 341 344
3 331 343 345
3 331 345 346
3 331 346 247
3 347 348 346
3 349 342 340
3 349 340 338
3 349 338 350
3 351 344 349
3 351 349 350
3 351 350 352
3 353 345 351
3 353 351 352
3 353 352 354
3 347 353 354
3 347 354 348
3 355 356 357
3 355 357 358
3 355 359 360
3 355 360 356
3 359 355 361
3 362 363 360
3 364 365 366
3 367 364 366
3 367 366 368
3 369 367 370
3 371 369 372
3 373 359 374
3 375 374 359
3 375 359 361
3 375 361 358
3 375 358 376
3 362 373 374
3 362 374 377
3 362 377 378
3 362 378 363
3 379 377 374
3 377 380 381
3 377 381 378
3 382 380 377
3 383 384 368
3 383 368 381
3 385 386 372
3 385 372 370
3 385 370 384
3 387 388 386
3 389 390 388
3 391 392 393
3 391 393 371
3 391 371 390
3 394 393 392
3 395 379 375
3 395 375 396
3 397 383 380
3 397 380 398
3 382 395 399
3 382 399 398
3 382 398 380
3 400 385 397
3 400 397 398
3 400 398 401
3 402 401 398
3 403 387 400
3 403 400 404
3 405 391 389
3 405 389 403
3 405 403 406
3 407 405 408
3 407 409 410
3 407 410 392
3 411 392 410
3 412 413 410
3 414 394 411
3 414 411 410
3 414 410 413
3 415 399 396
3 415 396 416
3 417 404 401
3 417 401 418
3 402 415 416
3 402 416 419
3 402 419 418
3 402 418 401
3 420 406 417
3 420 417 418
3 420 418 421
3 419 422 421
3 419 421 418
3 423 408 420
3 423 420 421
3 423 421 424
3 425 424 421
3 412 409 423
3 412 423 424
3 412 424 413
3 426 427 414
3 426 414 413
3 426 413 424
3 428 429 427
3 430 425 422
3 430 422 431
3 428 426 430
3 428 430 431
3 428 431 429
3 432 433 434
3 435 436 433
3 435 433 432
3 437 435 432
3 438 439 440
3 441 442 439
3 441 439 438
3 443 439 442
3 433 444 434
3 445 444 433
3 436 446 445
3 436 445 433
3 447 445 446
3 448 449 450
3 451 449 448
3 452 453 449
3 452 449 451
3 440 439 453
3 440 453 452
3 443 453 439
3 444 454 434
3 455 454 444
3 445 455 444
3 456 455 445
3 447 457 456
3 447 456 445
3 458 459 456
3 458 456 457
3 460 459 458
3 461 462 459
3 461 459 460
3 463 462 461
3 464 465 462
3 464 462 463
3 450 449 465
3 450 465 464
3 466 465 449
3 453 466 449
3 443 466 453
3 454 467 434
3 468 467 454
3 455 468 454
3 469 468 455
3 456 469 455
3 470 469 456
3 459 470 456
3 471 470 459
3 462 471 459
3 472 471 462
3 465 472 462
3 473 472 465
3 466 473 465
3 443 473 466
3 467 474 434
3 475 474 467
3 468 475 467
3 476 475 468
3 469 476 468
3 477 476 469
3 470 477 469
3 478 477 470
3 471 478 470
3 479 478 471
3 472 479 471
3 480 479 472
3 473 480 472
3 443 480 473
3 474 481 434
3 482 481 474
3 475 482 474
3 483 482 475
3 476 483 475
3 484 483 476
3 477 484 476
3 485 484 477
3 478 485 477
3 486 485 478
3 479 486 478
3 487 486 479
3 480 487 479
3 443 487 480
3 481 488 434
3 489 488 481
3 482 489 481
3 490 489 482
3 483 490 482
3 491 490 483
3 484 491 483
3 492 491 484
3 485 492 484
3 493 492 485
3 486 493 485
3 494 493 486
3 487 494 486
3 443 494 487
3 488 495 434
3 496 495 488
3 489 496 488
3 497 496 489
3 490 497 489
3 498 497 490
3 491 498 490
3 499 498 491
3 492 499 491
3 500 499 492
3 493 500 492
3 501 500 493
3 494 501 493
3 443 501 494
3 495 502 434
3 503 502 495
3 496 503 495
3 504 503 496
3 497 504 496
3 505 504 497
3 498 505 497
3 506 505 498
3 499 506 498
3 507 506 499
3 500 507 499
3 508 507 500
3 501 508 500
3 443 508 501
3 502 509 434
3 510 509 502
3 503 510 502
3 511 510 503
3 504 511 503
3 512 511 504
3 505 512 504
3 513 512 505
3 506 513 505
3 514 513 506
3 507 514 506
3 515 514 507
3 508 515 507
3 443 515 508
3 509 516 434
3 517 516 509
3 510 517 509
3 518 517 510
3 511 518 510
3 519 518 511
3 512 519 511
3 520 519 512
3 513 520 512
3 521 520 513
3 514 521 513
3 522 521 514
3 515 522 514
3 443 522 515
3 516 523 434
3 524 523 516
3 517 524 516
3 525 524 517
3 518 525 517
3 526 525 518
3 519 526 518
3 527 526 519
3 520 527 519
3 528 527 520
3 521 528 520
3 529 528 521
3 522 529 521
3 443 529 522
3 523 530 434
3 531 530 523
3 524 531 523
3 532 531 524
3 525 532 524
3 533 532 525
3 526 533 525
3 534 533 526
3 527 534 526
3 535 534 527
3 528 535 527
3 536 535 528
3 529 536 528
3 443 536 529
3 530 537 434
3 538 537 530
3 531 538 530
3 539 540 538
3 539 538 531
3 532 541 539
3 532 539 531
3 542 541 532
3 533 543 542
3 533 542 532
3 544 543 533
3 534 545 544
3 534 544 533
3 546 547 545
3 546 545 534
3 535 546 534
3 548 546 535
3 536 548 535
3 443 548 536
3 537 549 434
3 550 551 549
3 550 549 537
3 538 552 550
3 538 550 537
3 553 552 538
3 540 553 538
3 547 546 554
3 555 556 554
3 555 554 546
3 548 555 546
3 443 555 548
3 549 432 434
3 557 437 432
3 557 432 549
3 551 557 549
3 558 442 441
3 556 555 442
3 556 442 558
3 443 442 555
